<svg xmlns="http://www.w3.org/2000/svg" viewBox="0 0 4000 966"><g transform="translate(0,966) scale(0.1,-0.1)" fill="#060608" stroke="none"><path d="M2500 7803 c-313 -24 -627 -103 -855 -213 -121 -58 -282 -164 -382 -252 -328 -287 -513 -722 -563 -1323 -8 -100 -10 -487 -8 -1345 4 -1086 6 -1217 22 -1325 69 -469 204 -793 430 -1032 249 -264 605 -418 1131 -490 121 -17 274 -18 2315 -18 2255 0 2350 1 2715 41 144 16 355 53 436 78 69 21 127 53 133 74 4 12 -13 61 -44 127 l-50 107 0 1534 0 1534 -1850 0 -1850 0 0 -705 0 -705 23 0 c13 0 318 22 678 49 360 27 741 52 847 56 l192 6 0 -384 0 -385 -347 -7 c-192 -4 -755 -8 -1253 -9 -952 -1 -970 0 -1138 45 -158 42 -247 111 -310 242 -47 95 -68 175 -82 307 -13 126 -13 1864 0 1990 32 305 153 474 390 544 151 45 182 46 1255 46 980 0 1473 -8 1935 -30 473 -23 914 -52 997 -65 l31 -6 156 631 c86 347 156 641 156 655 0 37 -51 71 -155 105 -197 62 -453 101 -805 120 -169 9 -4035 12 -4150 3z"/><path d="M31430 7786 c0 -13 23 -207 50 -430 l50 -406 0 -2575 0 -2575 995 0 995 0 0 981 0 982 248 -6 c752 -16 1179 -183 1732 -676 47 -42 254 -242 460 -446 206 -204 411 -399 455 -435 193 -153 431 -287 622 -349 112 -37 366 -92 563 -123 128 -20 182 -22 470 -23 215 0 357 4 420 13 140 20 390 61 430 72 l35 10 150 566 c83 312 151 572 153 579 2 8 -44 17 -155 28 -178 19 -289 41 -478 93 -350 97 -674 263 -1205 619 -124 83 -285 189 -357 234 l-133 84 97 34 c115 40 300 127 393 185 445 279 723 764 781 1363 17 178 6 624 -19 791 -41 262 -88 420 -179 595 -204 395 -600 669 -1117 774 -309 63 -125 59 -2913 62 l-2543 3 0 -24z m4491 -1422 c126 -39 207 -106 255 -208 39 -84 47 -145 42 -330 -6 -188 -20 -254 -81 -371 -86 -161 -252 -252 -522 -284 -342 -40 -1143 -49 -1717 -18 -174 9 -331 17 -348 17 l-30 0 0 610 0 611 1168 -3 c1147 -3 1168 -4 1233 -24z"/><path d="M9400 5219 l0 -2581 -50 -398 c-27 -219 -50 -408 -50 -419 l0 -21 2758 0 c1722 0 2828 4 2947 10 317 17 544 53 568 91 8 12 -59 161 -294 655 l-304 639 -1808 3 -1807 2 0 2300 0 2300 -980 0 -980 0 0 -2581z"/><path d="M14810 7794 c0 -3 668 -795 1485 -1761 l1485 -1755 0 -1239 0 -1239 990 0 990 0 0 1218 0 1217 1304 1473 1305 1473 191 295 c105 162 193 301 197 309 4 13 -149 15 -1228 14 l-1234 0 -494 -700 c-373 -529 -550 -789 -725 -1069 l-231 -370 -49 3 -48 2 -242 382 c-198 314 -329 503 -736 1067 l-495 686 -1232 0 c-678 0 -1233 -2 -1233 -6z"/><path d="M22810 7779 c0 -11 23 -200 50 -419 l50 -398 0 -2581 0 -2581 2438 0 c1506 0 2489 4 2572 10 599 44 1033 171 1388 406 115 77 311 272 384 384 154 234 246 494 294 836 15 105 18 256 21 1259 5 1345 1 1454 -76 1750 -213 829 -871 1264 -2031 1345 -91 6 -1060 10 -2617 10 l-2473 0 0 -21z m4733 -1406 c212 -60 336 -170 420 -369 57 -136 57 -127 57 -1191 0 -931 -1 -983 -20 -1073 -22 -110 -79 -231 -140 -302 -46 -53 -149 -124 -230 -158 -30 -12 -95 -32 -145 -43 -88 -20 -119 -21 -1337 -24 l-1248 -4 0 1596 0 1596 1283 -3 1282 -3 78 -22z"/></g></svg>